<svg width="32" height="32" viewBox="0 0 32 32" fill="none" xmlns="http://www.w3.org/2000/svg">
<path d="M27.3032 23.6488H26.6496C26.1267 22.9646 25.3232 22.507 24.3736 22.507C23.2932 22.507 22.4089 23.0952 21.9015 23.9411C21.6169 23.9411 21.5477 23.9411 21.2633 23.9411C20.7557 23.0952 19.8677 22.507 18.7912 22.507C17.7108 22.507 16.8265 23.0952 16.3191 23.9411C16.0345 23.9411 15.9655 23.9411 15.6809 23.9411C15.1735 23.0952 14.2853 22.507 13.2088 22.507C12.1285 22.507 11.2442 23.0952 10.7367 23.9411C10.4522 23.9411 10.383 23.9411 10.0985 23.9411C9.59104 23.0952 8.70293 22.507 7.62644 22.507C6.67683 22.507 5.87715 22.9646 5.35044 23.6488H4.69685C3.95484 17.7859 7.10357 9.8429 16.0077 9.8429C24.8964 9.83906 28.0452 17.7859 27.3032 23.6488Z" fill="#6DC5E3"/>
<path d="M17.1919 10.4542H14.7967L15.5656 8.05896H16.423L17.1919 10.4542Z" fill="#6DC5E3"/>
</svg>
