<svg width="48" height="49" viewBox="0 0 48 49" fill="none" xmlns="http://www.w3.org/2000/svg">
<path d="M35.6621 26.8526C33.5046 23.8742 30.0312 20.477 28.1501 18.7134C28.0221 18.5928 27.9213 18.4455 27.8548 18.2816C27.7882 18.1177 27.7574 17.9411 27.7644 17.764C27.7715 17.5868 27.8162 17.4134 27.8956 17.2555C27.975 17.0976 28.0872 16.959 28.2243 16.8493C30.3023 15.2226 32.2348 13.4129 33.9996 11.4413C36.0127 9.11647 33.4262 6.24702 30.9635 7.75505C29.9446 8.3834 29.0164 8.87769 28.014 8.69757C27.1147 8.54677 26.6403 7.98125 26.038 7.18116C25.8054 6.84496 25.4966 6.57053 25.1376 6.38109C24.7786 6.19164 24.38 6.09274 23.9754 6.09274C23.5708 6.09274 23.1721 6.19164 22.8131 6.38109C22.4541 6.57053 22.1453 6.84496 21.9128 7.18116C21.294 7.98125 20.8196 8.54677 19.9203 8.71014C18.9179 8.89026 17.9897 8.39596 16.9708 7.76762C14.4874 6.24702 11.8885 9.11647 13.8892 11.4413C15.654 13.4129 17.5866 15.2226 19.6645 16.8493C19.8017 16.959 19.9138 17.0976 19.9932 17.2555C20.0726 17.4134 20.1174 17.5868 20.1245 17.764C20.1315 17.9411 20.1007 18.1177 20.0341 18.2816C19.9675 18.4455 19.8668 18.5928 19.7388 18.7134C17.8577 20.477 14.376 23.8742 12.2268 26.8526C9.13287 31.1295 7.49104 35.0085 9.75165 38.5817C12.0659 42.2596 15.5476 42.6492 23.9382 42.6492C32.3289 42.6492 35.8106 42.2596 38.1248 38.5817C40.3978 35.0085 38.756 31.1295 35.6621 26.8526Z" fill="#7D77FC"/>
<path d="M25.6254 18.8935L25.5883 18.8683L25.6254 18.8935Z" fill="#004A43"/>
<path d="M24.26 18.0348L24.2683 18.0264L24.26 18.0348Z" fill="#004A43"/>
<path d="M21.2693 17.6536C21.2179 17.6164 21.1595 17.5905 21.0977 17.5775C21.0359 17.5645 20.9721 17.5648 20.9104 17.5782C20.7915 17.6081 20.6887 17.6839 20.624 17.7895C20.5593 17.8951 20.5377 18.0222 20.5639 18.1437C20.5739 18.2113 20.5988 18.2758 20.6366 18.3324C20.6744 18.3889 20.7243 18.4361 20.7825 18.4705C20.8775 18.5391 20.9836 18.5901 21.096 18.6213L21.0754 18.6841C21.261 18.6632 21.0754 18.8349 21.2652 18.8349L21.2363 18.8684L21.3188 18.7637C21.4921 18.6967 21.3559 18.9145 21.5539 18.8014C21.4921 18.8014 21.5539 18.659 21.6282 18.7051L21.5952 18.7595C21.6364 18.7595 21.6571 18.7386 21.6818 18.7595C21.7066 18.7805 21.6447 18.8391 21.7066 18.8475L21.6488 18.9103L21.7891 18.8349C21.8633 18.9271 22.016 18.8768 22.0366 18.969C22.0366 18.969 22.2181 19.0527 22.2758 18.969C22.2305 19.0192 22.3295 19.0653 22.2758 19.1239C22.3377 19.0695 22.4904 19.0402 22.5357 19.1239C22.742 19.2329 22.9111 19.0904 23.0968 19.1952C23.0968 19.1198 23.1916 19.17 23.1751 19.0737C23.3731 19.0108 23.5258 19.2957 23.5877 19.015C23.6784 19.015 23.6908 19.0862 23.7403 19.1072H23.7155C23.8308 19.0969 23.9468 19.0969 24.0621 19.1072C24.1239 19.0779 24.1322 18.9438 24.2436 18.9773C24.2064 19.0318 24.2436 19.0234 24.2931 19.0234C24.2683 19.0234 24.2601 19.0485 24.3178 19.0862C24.327 19.0772 24.3381 19.0706 24.3503 19.067C24.3626 19.0633 24.3755 19.0627 24.388 19.0653C24.4581 19.0653 24.4457 19.0318 24.4127 19.0234C24.3797 19.015 24.4127 19.0025 24.4127 18.9899C24.487 19.0611 24.6148 18.9899 24.6272 19.0737C24.8061 19.029 24.9812 18.9701 25.1511 18.8977C25.1759 18.9438 25.1511 18.9857 25.0892 19.0108L25.213 18.9815C25.213 19.0485 25.147 19.0276 25.1099 19.0444C25.2707 19.1365 25.4028 18.9061 25.5884 18.9899L25.6173 18.9313C25.6186 18.9139 25.6242 18.8971 25.6336 18.8825C25.643 18.8678 25.6558 18.8558 25.6709 18.8475C25.7039 18.8977 25.6709 18.9773 25.7781 18.9606C25.8854 18.9438 25.9679 18.9019 26.0504 18.86C26.0009 18.86 26.0092 18.8223 26.0257 18.7972C26.0422 18.7721 26.104 18.8391 26.1329 18.7972L26.1577 18.8726C26.1205 18.8014 26.2484 18.7679 26.2567 18.7302C26.2979 18.7846 26.203 18.7972 26.203 18.8433L26.4629 18.7679C26.5413 18.6883 26.4258 18.7009 26.4629 18.6255C26.5001 18.5501 26.5991 18.5082 26.7063 18.5207L26.6527 18.4663C26.6998 18.4247 26.755 18.3935 26.8147 18.3748C26.8743 18.356 26.9372 18.3501 26.9992 18.3574C27.0762 18.2843 27.1379 18.1962 27.1804 18.0983C27.223 18.0003 27.2455 17.8947 27.2467 17.7877C27.2453 17.7454 27.2311 17.7046 27.206 17.6709C27.1809 17.6371 27.1461 17.6121 27.1065 17.5992C27.0449 17.5745 26.9786 17.5644 26.9126 17.5698H26.8218C26.4588 17.5698 26.3557 17.8212 25.9019 17.9887C25.5752 17.9615 25.2468 17.9615 24.9201 17.9887C24.7056 17.9887 24.487 18.0264 24.2807 18.0348C24.1858 18.1395 24.0084 18.0348 23.8929 18.1144L23.8475 18.0516C23.8303 18.0666 23.8084 18.0749 23.7857 18.0749C23.763 18.0749 23.741 18.0666 23.7238 18.0516C23.666 18.0935 23.5959 18.0516 23.567 18.0809H23.4928V18.0558C23.3948 18.0954 23.2855 18.0954 23.1875 18.0558V18.1312C22.9936 18.0264 22.907 18.1689 22.7379 18.039C22.4821 18.194 22.4078 17.8421 22.148 17.9678C22.181 17.9678 22.148 17.9301 22.148 17.9133C22.0366 17.9133 21.9335 17.884 21.8963 18.0222C21.8221 17.9971 21.8468 17.9594 21.8509 17.905C21.8509 17.9636 21.7643 17.972 21.7066 17.9552H21.7396C21.6818 17.9552 21.6241 17.9343 21.5704 17.9175V18.0432C21.4962 17.972 21.5952 17.8966 21.5086 17.8882L21.4756 17.9804C21.3765 17.8714 21.4549 17.7625 21.2693 17.6536Z" fill="#004A43"/>
<path d="M26.0751 34.6902H26.2071C26.2071 34.6902 26.1658 34.6609 26.0751 34.6902Z" fill="#004A43"/>
<path d="M26.6732 30.5221L26.6815 30.5263L26.7227 30.5347L26.6732 30.5221Z" fill="#004A43"/>
<path d="M25.9431 26.6054C26.4908 26.8543 27.0201 27.1427 27.5272 27.4684C27.8119 27.6401 27.9397 27.6401 27.9892 27.4684C27.979 27.1902 27.8723 26.9247 27.6881 26.7185C27.3906 26.3472 27.014 26.0493 26.5867 25.8472C26.1723 25.6413 25.7344 25.4879 25.2831 25.3906C25.213 25.3906 25.3615 25.42 25.2831 25.3906V25.3487C24.9407 25.3194 24.8706 25.2775 24.8293 25.2315C24.7881 25.1854 24.7138 25.1309 24.3673 25.1351L24.4333 25.0974L24.2435 25.2147C24.0888 25.2619 23.9239 25.2619 23.7691 25.2147C23.5939 25.1756 23.4107 25.1977 23.2494 25.2775C23.5134 25.2524 23.3855 25.399 23.0637 25.4116L23.1091 25.3487C22.9941 25.381 22.8769 25.4048 22.7585 25.42C22.8575 25.3697 22.7997 25.3236 22.5398 25.3823L22.7007 25.2733C22.5398 25.3404 22.3831 25.4074 22.2263 25.487C21.8336 25.5792 21.4498 25.7067 21.0795 25.8682L20.9558 25.9394C20.8562 25.9978 20.7611 26.0636 20.6711 26.1363C20.5706 26.2223 20.4768 26.3162 20.3906 26.4169C20.3308 26.4925 20.2834 26.5773 20.2503 26.6683C20.2875 26.5761 20.2132 26.6264 20.1472 26.6934C20.0812 26.7604 20.007 26.8442 20.0193 26.7562C19.9439 26.9642 19.8873 27.1787 19.8502 27.3972C19.814 27.6358 19.792 27.8764 19.7842 28.1177V28.0548C19.7887 28.352 19.8744 28.642 20.0317 28.8926C20.1633 29.1063 20.3292 29.296 20.5226 29.4539C20.867 29.7099 21.2296 29.9396 21.6075 30.1409C21.6075 30.0613 22.0201 30.275 21.9334 30.1409C22.7585 30.3755 23.3649 30.807 23.7238 30.6059C23.9321 30.6583 24.133 30.7371 24.3219 30.8405H24.2312C24.6764 30.9339 25.1147 31.0585 25.543 31.2133C25.7822 31.272 25.8689 31.1505 26.2649 31.3599C26.1164 31.3599 26.2649 31.4144 26.4299 31.4856C26.3309 31.4479 26.2979 31.4521 26.4712 31.5736C26.5111 31.5763 26.5502 31.5863 26.5867 31.6029C26.8259 31.7118 26.7888 31.6825 26.6898 31.6029C26.6898 31.6029 26.6898 31.6029 26.6898 31.5526C26.9084 31.7411 27.3003 31.9715 27.2467 32.0804C27.4714 32.2945 27.6183 32.5794 27.6633 32.8889C27.7314 33.1703 27.6993 33.4671 27.5726 33.7267C27.4942 33.756 27.5437 33.622 27.5726 33.467C27.5319 33.5942 27.472 33.7143 27.3952 33.823C27.3498 33.7812 27.5025 33.6136 27.5231 33.4963C27.3919 33.7026 27.2458 33.8986 27.0858 34.0828C26.8823 34.3071 26.6183 34.4659 26.3268 34.5394L26.2236 34.6399H26.1824C26.1824 34.6608 26.0669 34.7488 25.9761 34.7865C25.8689 34.753 25.9431 34.6566 25.6296 34.7404C25.3697 34.7404 24.9118 34.8954 24.5612 34.9415C24.7509 34.9415 24.6932 34.975 24.6107 35.0001C24.4416 35.0001 24.3425 34.9499 24.1982 35.0001V34.9206C24.26 34.996 23.7856 34.9876 23.699 35.0043C23.6124 34.9415 23.963 34.9792 24.0043 34.9289C23.8386 34.9273 23.6733 34.9147 23.5093 34.8912C23.4268 34.8912 23.3484 34.8703 23.0225 34.8158C22.6966 34.7614 23.0679 34.9038 22.8905 34.9289C22.5569 34.8919 22.2327 34.794 21.9334 34.6399L22.0159 34.7488C21.5697 34.6336 21.164 34.3942 20.8444 34.0576C20.4564 33.8217 20.1185 33.5098 19.8502 33.1402C19.706 32.9313 19.5856 32.7065 19.4913 32.47C19.3675 32.1516 19.2892 32.1558 19.2438 32.3611C19.1879 32.666 19.2165 32.9807 19.3263 33.2701C19.3715 33.4067 19.4295 33.5386 19.4996 33.6639C19.5253 33.7181 19.5557 33.77 19.5903 33.8189C19.8453 34.2343 20.1859 34.5887 20.5886 34.8577C20.9298 35.089 21.3003 35.2722 21.69 35.4023C22.5877 35.7121 23.5368 35.8388 24.4828 35.7751C25.2809 35.7949 26.076 35.6686 26.83 35.4023C27.196 35.2679 27.5344 35.0663 27.8284 34.8075C28.2608 34.4372 28.5442 33.9183 28.6245 33.3497C28.6649 33.0214 28.6411 32.6883 28.5544 32.3695C28.46 32.0468 28.2966 31.7493 28.0759 31.4982C27.6833 31.0797 27.2063 30.7524 26.6774 30.5389C26.0987 30.3285 25.5077 30.155 24.9077 30.0195L24.7221 29.9064C24.5255 29.8935 24.332 29.8497 24.1487 29.7765C23.8723 29.7556 23.5959 29.655 23.4639 29.6424L23.1875 29.5377H23.2452C22.8143 29.4622 22.3971 29.321 22.0077 29.1188V29.1984C21.7367 29.0462 21.4737 28.8798 21.2198 28.6999C21.1192 28.6367 21.0343 28.551 20.9714 28.4494C20.9084 28.3478 20.8692 28.2329 20.8567 28.1135C20.7752 27.9703 20.7529 27.8 20.7949 27.6401C20.8298 27.4945 20.9008 27.3604 21.0011 27.2505C21.2654 27.0011 21.5528 26.778 21.8592 26.5845C21.7602 26.6515 21.9211 26.5845 21.9211 26.6222C22.3047 26.4379 22.7791 26.3415 22.7461 26.2033C23.0802 26.1447 23.0266 26.2033 23.0761 26.2536C23.0761 26.1907 23.3525 26.1321 23.6206 26.1195L23.4969 26.1488C23.7483 26.1322 24.0004 26.1322 24.2518 26.1488L24.1115 26.0232C24.5241 26.0902 24.2023 26.1698 24.5818 26.1865V26.0902C24.7561 26.1195 24.923 26.1835 25.0727 26.2787C25.3563 26.4048 25.6469 26.5139 25.9431 26.6054Z" fill="#004A43"/>
<path d="M24.5322 27.0243L24.5034 27.0913C24.5034 27.0913 24.5281 27.0662 24.5322 27.0243Z" fill="#004A43"/>
<path d="M23.6331 36.2652C23.6001 38.1041 24.5571 37.2705 24.5736 36.395C24.5901 35.5195 24.5736 35.8672 24.5736 35.7876H24.6355C24.5571 35.4944 24.7757 35.6787 24.7139 35.3687L24.7551 35.3939L24.6272 35.3185C24.5117 35.0546 24.7592 35.176 24.5984 34.8996C24.5984 35.0169 24.4581 34.954 24.4911 34.8116L24.5489 34.8493C24.5489 34.7697 24.5117 34.7446 24.5241 34.6901C24.5571 34.7362 24.6107 34.7153 24.6025 34.598L24.6767 34.6776L24.5695 34.4597C24.6396 34.288 24.5695 34.0408 24.6479 33.9529C24.6479 33.9529 24.6974 33.5884 24.6066 33.5046C24.6602 33.58 24.6891 33.379 24.7551 33.4334C24.7149 33.3607 24.6904 33.2802 24.6833 33.1971C24.6762 33.114 24.6866 33.0304 24.7139 32.9517C24.7922 32.5328 24.6314 32.248 24.7139 31.8793C24.6396 31.8793 24.685 31.6992 24.5901 31.7495C24.5076 31.3641 24.7922 31.0499 24.5117 30.9117C24.5117 30.7399 24.5819 30.7064 24.5984 30.6184V30.6603C24.5864 30.4399 24.5864 30.2189 24.5984 29.9985C24.5736 29.877 24.4457 29.856 24.4787 29.6424C24.5324 29.7094 24.5241 29.6424 24.5241 29.5419C24.5241 29.5921 24.5489 29.6089 24.586 29.5042C24.5702 29.4862 24.5589 29.4647 24.553 29.4413C24.553 29.3031 24.52 29.3282 24.5117 29.3911C24.5117 29.3911 24.5117 29.3911 24.4787 29.412C24.5489 29.2738 24.4787 29.0224 24.5736 28.9931C24.5736 28.5742 24.4746 28.2936 24.4457 27.9584C24.4911 27.9207 24.5324 28.0003 24.5489 28.0967V27.8579C24.6149 27.8579 24.5819 27.9961 24.5942 28.0674C24.7056 27.7825 24.4993 27.4809 24.5942 27.1458L24.5447 27.0746C24.5159 27.0746 24.4787 27.0034 24.4705 26.9531C24.5324 26.907 24.6066 26.9531 24.6066 26.7897C24.6066 26.6263 24.5819 26.4169 24.5571 26.2451C24.5571 26.3373 24.5117 26.308 24.4952 26.2703C24.4787 26.2326 24.553 26.1362 24.5282 26.0734H24.6066C24.5324 26.1069 24.5324 25.8598 24.4993 25.8263C24.5571 25.7802 24.5489 25.9561 24.5901 25.9771V25.4786C24.5324 25.3026 24.5158 25.5121 24.4457 25.4241C24.4146 25.2637 24.4146 25.0986 24.4457 24.9382L24.3756 24.9926C24.3228 24.7718 24.3357 24.54 24.4127 24.3266C23.8888 22.1316 23.6496 23.8616 23.6496 23.8616C23.4804 24.7246 23.6743 25.1728 23.7114 26.1991C23.6154 26.8888 23.5658 27.5844 23.5629 28.281C23.5629 28.725 23.5629 29.2026 23.5629 29.6382C23.6661 29.8477 23.5629 30.2121 23.6372 30.476L23.5753 30.5682C23.608 30.6544 23.608 30.75 23.5753 30.8363C23.6207 30.9619 23.5753 31.1044 23.6124 31.1672V31.318L23.5877 31.2929C23.6205 31.5066 23.6205 31.7242 23.5877 31.938H23.6578C23.5712 32.3569 23.7156 32.5244 23.6166 32.9098C23.7981 33.3999 23.4763 33.6806 23.6454 34.1665C23.6454 34.1037 23.6083 34.1958 23.5918 34.1874C23.5918 34.422 23.6124 34.6692 23.7527 34.6692C23.7527 34.8409 23.7073 34.8074 23.6537 34.8284C23.7156 34.8284 23.7362 34.975 23.7362 35.109V35.0462V35.4232L23.8558 35.3478C23.8187 35.5489 23.7114 35.4022 23.7362 35.5908H23.8352C23.7939 35.8211 23.6454 35.7248 23.6331 36.2652Z" fill="#004A43"/>
</svg>
