<svg width="48" height="49" viewBox="0 0 48 49" fill="none" xmlns="http://www.w3.org/2000/svg">
<path d="M17.25 42.6492C15.025 42.6492 12.8499 41.9792 10.9998 40.7239C9.14979 39.4687 7.70785 37.6845 6.85636 35.597C6.00487 33.5096 5.78209 31.2126 6.21617 28.9966C6.65025 26.7806 7.72171 24.7451 9.29505 23.1474C10.8684 21.5497 12.873 20.4617 15.0552 20.0209C17.2375 19.5801 19.4995 19.8064 21.5552 20.671C23.6109 21.5357 25.3679 22.9999 26.604 24.8785C27.8402 26.7572 28.5 28.9659 28.5 31.2253V42.6492H17.25Z" fill="#44B8D9"/>
<path d="M30.75 28.9405C32.975 28.9405 35.1501 28.2705 37.0002 27.0153C38.8502 25.76 40.2922 23.9758 41.1436 21.8884C41.9951 19.8009 42.2179 17.504 41.7838 15.2879C41.3497 13.0719 40.2783 11.0364 38.7049 9.43873C37.1316 7.84107 35.127 6.75305 32.9448 6.31225C30.7625 5.87146 28.5005 6.09769 26.4448 6.96234C24.3891 7.82699 22.6321 9.29122 21.396 11.1699C20.1598 13.0485 19.5 15.2572 19.5 17.5166V28.9405H30.75Z" fill="#44B8D9"/>
<path d="M17.4536 32.5664C17.4277 33.6358 18.1532 33.1504 18.1647 32.6414C18.1762 32.1324 18.1647 32.3336 18.1647 32.2902H18.2136C18.1503 32.1206 18.3173 32.2271 18.2683 32.0574H18.3L18.205 32.0101C18.1158 31.8601 18.3029 31.9312 18.182 31.7615C18.182 31.8286 18.0783 31.7931 18.1014 31.7102L18.1445 31.7299C18.1445 31.6826 18.1186 31.6668 18.1273 31.6392C18.1359 31.6116 18.1935 31.6392 18.1877 31.5839L18.2424 31.6313L18.1618 31.505C18.2136 31.4064 18.1618 31.2485 18.2194 31.2091C18.2194 31.2091 18.2568 30.996 18.1877 30.9486C18.2309 30.9921 18.2511 30.8737 18.3 30.9092C18.2511 30.8539 18.2165 30.6922 18.2712 30.629C18.3317 30.3883 18.2108 30.2345 18.2712 30.0056C18.2165 30.0056 18.2482 29.8991 18.1791 29.9306C18.1158 29.7057 18.3288 29.536 18.1186 29.4453C18.1186 29.3427 18.1704 29.323 18.182 29.2717V29.2953C18.1716 29.1642 18.1716 29.0319 18.182 28.9008C18.1647 28.8297 18.0639 28.8179 18.0927 28.6916C18.1301 28.7311 18.1244 28.6916 18.1244 28.6364C18.1244 28.664 18.1445 28.6758 18.1733 28.6127C18.1627 28.604 18.1538 28.5918 18.1474 28.5772C18.133 28.4983 18.1215 28.5101 18.1158 28.5456C18.1073 28.5422 18.0983 28.5422 18.0898 28.5456C18.1417 28.4628 18.0898 28.3168 18.1589 28.3089C18.1401 28.123 18.1142 27.9386 18.0812 27.7565C18.1158 27.7565 18.1445 27.7801 18.1561 27.8393V27.6973C18.2079 27.6973 18.1848 27.7801 18.1935 27.8196C18.277 27.6539 18.1186 27.4803 18.1935 27.2869L18.1532 27.2435C18.133 27.2435 18.1042 27.2001 18.0985 27.1725C18.1417 27.1449 18.1992 27.1725 18.1992 27.0778C18.2424 27.0028 18.182 26.8608 18.1618 26.7621C18.1618 26.8174 18.1301 26.7976 18.1129 26.7621C18.0956 26.7266 18.1589 26.6871 18.1417 26.6516H18.1992C18.1445 26.6516 18.1417 26.5254 18.1186 26.5056C18.1647 26.478 18.1561 26.5806 18.1877 26.5924C18.1877 26.3991 18.1877 26.4977 18.1877 26.3044C18.1474 26.2018 18.133 26.3044 18.0812 26.2728C18.0294 26.2413 18.0351 26.0913 18.0812 25.9887L18.0265 26.0203C18.0071 25.9564 17.9996 25.8869 18.0046 25.818C18.0096 25.7492 18.0271 25.6831 18.0553 25.6257C17.6609 24.3512 17.4795 25.3574 17.4795 25.3574C17.3529 25.8585 17.4968 26.1189 17.5256 26.7148C17.4853 27.2396 17.3817 27.3777 17.4076 27.9222C17.3975 28.1851 17.3975 28.4485 17.4076 28.7114C17.4853 28.8297 17.4076 29.0428 17.4652 29.1849L17.4162 29.2401C17.428 29.2633 17.4343 29.2908 17.4343 29.319C17.4343 29.3472 17.428 29.3748 17.4162 29.3979C17.4508 29.4729 17.4162 29.5558 17.445 29.5913H17.4306V29.682H17.4133C17.4418 29.8107 17.4418 29.948 17.4133 30.0766H17.468C17.4018 30.3252 17.5112 30.416 17.4364 30.6409H17.422C17.5573 30.925 17.3126 31.0907 17.4421 31.3827C17.4248 31.3472 17.4133 31.3827 17.4018 31.3827C17.4018 31.5168 17.4191 31.6589 17.5256 31.6628C17.5256 31.7615 17.4882 31.7418 17.4479 31.7536C17.4939 31.7536 17.5112 31.8404 17.5141 31.9154L17.4968 31.8799V32.1008L17.5861 32.0574C17.5573 32.1719 17.4795 32.0851 17.4968 32.1995H17.5688C17.5745 32.3139 17.4623 32.2508 17.4536 32.5664Z" fill="#004A43"/>
<path d="M17.1915 37.8863C17.1563 38.2104 18.11 38.0615 18.1241 37.9125C18.1381 37.7636 18.1241 37.8206 18.1241 37.8074H18.1839C18.1029 37.7592 18.3211 37.8074 18.2578 37.7373H18.3H18.1733C18.0572 37.6936 18.3035 37.7373 18.1452 37.6629C18.1452 37.6629 18.0079 37.6629 18.0361 37.6629H18.0959C18.0959 37.6629 18.0607 37.6629 18.0748 37.6366C18.0889 37.6103 18.1592 37.6366 18.1522 37.6366H18.2226L18.117 37.6016C18.1839 37.5709 18.117 37.5227 18.1944 37.514C18.1944 37.514 18.2437 37.4483 18.1522 37.4351C18.2085 37.4351 18.2331 37.4351 18.3 37.4351C18.2367 37.4351 18.1909 37.3694 18.2613 37.3519C18.3387 37.2775 18.1768 37.2293 18.2613 37.1636C18.1909 37.1636 18.2331 37.1329 18.1416 37.1636C18.0572 37.0979 18.3387 37.041 18.0607 37.0191C18.0607 36.9884 18.1311 36.984 18.1452 36.9665C18.1332 36.9285 18.1332 36.8863 18.1452 36.8483C18.1205 36.8483 17.9903 36.8483 18.0255 36.7869C18.0607 36.7256 18.0713 36.7869 18.0713 36.7869C18.0713 36.7869 18.0959 36.7869 18.1346 36.7869H18.0994C18.0968 36.7832 18.0935 36.7802 18.0899 36.7782C18.0862 36.7761 18.0823 36.7751 18.0783 36.7751C18.0743 36.7751 18.0704 36.7761 18.0667 36.7782C18.0631 36.7802 18.0598 36.7832 18.0572 36.7869H18.0255C18.0959 36.7869 18.0255 36.7212 18.117 36.7169C18.117 36.6468 18.0185 36.5942 17.9903 36.5373C18.0258 36.529 18.0625 36.5385 18.0924 36.5636V36.5198C18.1592 36.5198 18.1276 36.5198 18.1416 36.5548C18.2543 36.5066 18.0466 36.4541 18.1416 36.3971H18.0924C18.0693 36.4044 18.0451 36.4044 18.022 36.3971C18.0783 36.3971 18.1557 36.3971 18.1522 36.3709C18.212 36.3709 18.1522 36.3052 18.1065 36.2745C18.0967 36.281 18.0858 36.2844 18.0748 36.2844C18.0637 36.2844 18.0529 36.281 18.0431 36.2745C18.0431 36.2745 18.0994 36.2745 18.0783 36.2395H18.1557C18.0818 36.2395 18.0818 36.2001 18.0502 36.1957C18.1065 36.1957 18.0959 36.1957 18.1381 36.222V36.0336C18.0818 36.003 18.0642 36.0336 17.9974 36.0336C17.9305 36.0336 17.934 35.9811 17.9974 35.9504H17.927C17.8812 35.8978 17.8918 35.8716 17.9657 35.8365C17.4449 35.4555 17.2056 35.7533 17.2056 35.7533C17.0367 35.9066 17.2302 35.9811 17.2654 36.1606C17.2126 36.3183 17.0754 36.3577 17.1106 36.5198C17.0965 36.5976 17.0965 36.6784 17.1106 36.7563C17.2091 36.7957 17.1106 36.857 17.1809 36.9008H17.1211C17.1493 36.9008 17.1669 36.9315 17.1211 36.9446H17.1035C17.1458 36.9665 17.1035 36.9928 17.1387 37.0015V37.0278H17.1141C17.1598 37.0672 17.1563 37.1067 17.1317 37.1417H17.2056C17.1176 37.2162 17.2619 37.2424 17.1598 37.3081H17.1915C17.371 37.3957 17.0507 37.4439 17.2197 37.5315C17.1985 37.5315 17.1809 37.5315 17.1633 37.5315C17.1458 37.5315 17.188 37.6147 17.3252 37.6147C17.3252 37.641 17.2795 37.6147 17.2267 37.641C17.2865 37.641 17.3111 37.6673 17.3111 37.6892H17.29V37.7549H17.4062C17.3675 37.7899 17.2619 37.7549 17.2865 37.7943H17.385C17.3604 37.8118 17.2126 37.7855 17.1915 37.8863Z" fill="#004A43"/>
<path d="M30.1394 23.8723C30.1006 24.1998 31.2632 24.0518 31.2847 23.8723C31.3062 23.6929 31.2847 23.7781 31.2847 23.7647H31.3579C31.2632 23.7108 31.5258 23.7647 31.4483 23.6929H31.5H31.345C31.2029 23.648 31.5043 23.6704 31.3105 23.6166C31.3105 23.6166 31.1426 23.6166 31.1771 23.6166H31.2503C31.2503 23.6166 31.2072 23.6166 31.2244 23.5897C31.2417 23.5628 31.3278 23.5897 31.3192 23.5897H31.4053L31.2546 23.5493C31.3364 23.5224 31.2546 23.473 31.345 23.4596C31.345 23.4596 31.4053 23.3968 31.2933 23.3833C31.3622 23.3833 31.3924 23.3833 31.4742 23.3833C31.3967 23.3833 31.3407 23.316 31.4268 23.298C31.5215 23.2263 31.3235 23.1769 31.4268 23.1096C31.3364 23.1096 31.388 23.0782 31.2761 23.1096C31.1771 23.0423 31.5172 22.984 31.1771 22.9616C31.1771 22.9301 31.2632 22.9212 31.2847 22.9077C31.2765 22.8887 31.2723 22.868 31.2723 22.8471C31.2723 22.8263 31.2765 22.8056 31.2847 22.7866C31.2546 22.7866 31.0909 22.7866 31.1383 22.7238C31.1857 22.661 31.19 22.7238 31.19 22.7238C31.19 22.7238 31.2244 22.7238 31.2675 22.7238H31.2287C31.2259 22.72 31.2223 22.717 31.2182 22.7149C31.2141 22.7129 31.2096 22.7118 31.2051 22.7118C31.2005 22.7118 31.196 22.7129 31.1919 22.7149C31.1878 22.717 31.1842 22.72 31.1814 22.7238H31.1383C31.2244 22.6968 31.1383 22.6565 31.2546 22.652C31.2546 22.5802 31.1297 22.5264 31.0953 22.468C31.1353 22.4513 31.18 22.4513 31.2201 22.468V22.4277C31.2976 22.4277 31.2632 22.4277 31.2761 22.4635C31.4139 22.4142 31.1598 22.3604 31.2761 22.302H31.2158C31.1861 22.3093 31.1551 22.3093 31.1254 22.302C31.1986 22.302 31.289 22.302 31.289 22.2751C31.3579 22.2482 31.2632 22.2078 31.2287 22.1764C31.1943 22.145 31.1771 22.1764 31.1512 22.1764C31.1254 22.1764 31.2244 22.1764 31.1943 22.1405H31.289C31.1986 22.1405 31.1986 22.1001 31.1598 22.0956C31.2287 22.0956 31.2158 22.0956 31.2675 22.1226V22.0328C31.1986 22.0014 31.1771 22.0328 31.0953 22.0328C31.0953 22.0059 31.0177 21.979 31.0953 21.9476H31.0091C30.9532 21.8938 30.9661 21.8623 31.0565 21.8265C30.4192 21.4361 30.1264 21.7457 30.1264 21.7457C29.9241 21.8982 30.1566 21.979 30.1996 22.1629C30.1351 22.3245 29.9671 22.3648 30.0145 22.5308C29.9952 22.6103 29.9952 22.6936 30.0145 22.7731C30.1351 22.809 30.0145 22.8763 30.1049 22.9212H30.0274C30.0619 22.9212 30.0877 22.9571 30.0274 22.9705C30.0791 22.993 30.0274 23.0199 30.0705 23.0289V23.0558H30.0403C30.092 23.0962 30.092 23.1365 30.0403 23.1679H30.1307C30.0231 23.2442 30.1996 23.2711 30.0748 23.3384C30.2944 23.4237 29.9025 23.4775 30.1092 23.5672C30.0834 23.5672 30.0619 23.5672 30.0403 23.5672C30.0188 23.5672 30.0705 23.6525 30.2427 23.657C30.2427 23.6839 30.1824 23.657 30.1178 23.6839C30.191 23.6839 30.2212 23.7108 30.2212 23.7332H30.1953V23.8005H30.3374C30.2944 23.8364 30.1652 23.8005 30.1953 23.8454H30.3116C30.3331 23.7961 30.1523 23.7781 30.1394 23.8723Z" fill="#004A43"/>
<path d="M27.6998 28.0226C27.9065 28.8245 28.1211 29.0289 28.2928 28.9087C28.3939 28.7692 28.4606 28.6066 28.4871 28.4348C28.5136 28.263 28.4991 28.0872 28.4449 27.9224C28.1991 27.1005 28.2889 27.4293 28.2577 27.3611L28.3006 27.337C28.1523 27.0845 28.3786 27.1967 28.2225 26.9361H28.2655L28.1445 26.9C27.9612 26.6996 28.1874 26.7316 27.9612 26.5192C28.0119 26.6194 27.8831 26.6114 27.8519 26.475H27.9104C27.8714 26.4069 27.8441 26.3909 27.8363 26.3387C27.8753 26.3708 27.9104 26.3387 27.8363 26.2345L27.9222 26.2786L27.7544 26.1222C27.731 25.9498 27.5632 25.7213 27.5905 25.6491C27.5699 25.5893 27.5438 25.5316 27.5125 25.4767C27.4657 25.3925 27.4033 25.3003 27.3526 25.2843C27.4267 25.3244 27.3526 25.144 27.415 25.164C27.2828 25.0673 27.1887 24.925 27.1497 24.7631C26.9742 24.3942 26.7167 24.2259 26.5567 23.8971C26.5216 23.9452 26.428 23.7728 26.4007 23.857C26.1237 23.6124 26.0964 23.2235 25.835 23.2797C25.7141 23.1634 25.7414 23.0952 25.6907 23.0231L25.7258 23.0471L25.2966 22.6382C25.1991 22.574 25.1133 22.6382 24.9806 22.4738C25.0587 22.4738 24.9806 22.4377 24.9338 22.3816C24.9767 22.4137 24.9962 22.4137 24.9338 22.3174C24.9132 22.3211 24.8921 22.3211 24.8714 22.3174C24.7622 22.2413 24.77 22.2693 24.8129 22.3174C24.8558 22.3656 24.8129 22.3174 24.8129 22.3495C24.7427 22.2212 24.5242 22.113 24.5554 22.0448C24.2978 21.8419 24.0237 21.6622 23.7361 21.5076C23.7361 21.4555 23.8064 21.4715 23.8922 21.5076L23.6971 21.3833C23.7244 21.3392 23.822 21.4354 23.8844 21.4675C23.7883 21.3581 23.6678 21.2741 23.5333 21.2229C23.3895 21.1709 23.257 21.0906 23.1432 20.9864H23.0651C23.0651 21.0064 22.9793 20.9864 22.9364 20.9864C22.8935 20.9864 22.9871 20.8942 22.8506 20.814C22.7017 20.7172 22.5361 20.6505 22.3629 20.6175C22.4409 20.6656 22.4019 20.6777 22.3629 20.6736C22.3239 20.6696 22.2693 20.5774 22.2069 20.5694V20.5053C22.2069 20.5734 21.9962 20.4692 21.9572 20.5053C21.9338 20.4411 22.0859 20.5053 22.1171 20.5053C21.8245 20.381 21.9689 20.4451 21.6724 20.3248C21.5007 20.3048 21.6724 20.393 21.5866 20.413C21.4347 20.3835 21.2876 20.3322 21.1496 20.2607L21.1808 20.3289C20.9694 20.308 20.7661 20.2351 20.5879 20.1164C19.5345 20.0642 19.4175 20.2206 19.5384 20.3409C19.6875 20.4555 19.8534 20.5448 20.03 20.6055C20.74 20.9262 21.1574 20.8982 22.0157 21.255C22.1913 21.3552 22.3356 21.4394 22.4604 21.5196L22.792 21.7642C22.8935 21.8444 23.0027 21.9165 23.1276 22.0007C23.2524 22.0849 23.385 22.1891 23.5645 22.3014C23.7439 22.4137 23.8844 22.546 24.0482 22.6743C24.2121 22.8026 24.3759 22.9188 24.5203 23.0551C24.7036 23.1233 24.9104 23.404 25.0899 23.5202L25.1133 23.6205C25.1878 23.6544 25.2485 23.7139 25.2849 23.7888C25.3864 23.849 25.4566 23.9612 25.5073 23.9893C25.5385 24.0214 25.5658 24.0575 25.597 24.0935H25.5658C25.7159 24.2234 25.8473 24.3746 25.9559 24.5426L25.991 24.4945C26.1705 24.8433 26.3305 24.8954 26.467 25.2362C26.6117 25.3645 26.7173 25.5329 26.7713 25.7213C26.8337 25.9073 26.9289 26.0799 27.0522 26.2305C27.0132 26.1864 27.0522 26.2666 27.0249 26.2706C27.1263 26.451 27.2316 26.6715 27.3331 26.6074C27.3916 26.7477 27.3331 26.7357 27.3331 26.7717C27.376 26.7717 27.4423 26.868 27.4891 26.9802L27.454 26.9361L27.5905 27.2528L27.653 27.1566C27.6959 27.337 27.5671 27.2408 27.653 27.3972L27.7232 27.3691C27.6998 27.5856 27.5593 27.5335 27.6998 28.0226Z" fill="#004A43"/>
<path d="M27.4143 13.1C27.3584 13.2647 27.3228 13.4358 27.3081 13.6094C27.2973 13.7473 27.2973 13.8858 27.3081 14.0236C27.3329 14.2054 27.3971 14.3794 27.496 14.5331C27.6431 14.7526 27.7656 14.7567 27.8596 14.6615C27.9696 14.5155 28.0438 14.3452 28.0761 14.1644C28.1128 14.0609 28.121 13.9491 28.1619 13.8455C28.178 13.7926 28.1903 13.7387 28.1986 13.684C28.2192 13.6333 28.2343 13.5806 28.2436 13.5266C28.2806 13.3801 28.3398 13.2404 28.4192 13.1124C28.4437 13.0679 28.471 13.025 28.5009 12.984C28.5009 12.9592 28.4682 13.0089 28.5009 12.984L28.554 13.0171C28.6806 12.7314 28.7174 13.0171 28.8808 12.7769V12.8266C28.8808 12.7769 28.8808 12.7231 28.8808 12.6775C29.0483 12.4124 29.0646 12.6775 29.2607 12.3917C29.1545 12.4621 29.1381 12.3006 29.3015 12.2468V12.3172C29.3791 12.2675 29.3955 12.2343 29.4567 12.2219C29.42 12.2716 29.4567 12.313 29.5834 12.2509L29.5303 12.3544C29.5902 12.2868 29.6543 12.2232 29.7222 12.1639C29.9224 12.1639 30.2083 12.0107 30.3064 12.0728C30.3064 12.0728 30.7149 12.0438 30.817 11.9527C30.7353 12.019 30.9722 12.019 30.9109 12.0935C30.9942 12.0447 31.0866 12.014 31.1822 12.0033C31.2779 11.9926 31.3747 12.0021 31.4665 12.0314H31.4419C31.8831 12.1225 32.2344 12.0314 32.5816 12.2633C32.5816 12.1846 32.7736 12.3089 32.7613 12.2053C32.9417 12.2611 33.1022 12.369 33.2229 12.516C33.3373 12.6237 33.4149 12.7065 33.5701 12.6568C33.709 12.7935 33.6763 12.868 33.7172 12.9592L33.6804 12.9302C33.8376 13.102 33.9524 13.3093 34.0154 13.5349C34.0725 13.6426 34.2155 13.6343 34.2155 13.8786C34.1502 13.8124 34.1869 13.9035 34.1828 13.9946C34.1828 13.9366 34.1542 13.9242 34.1216 14.0402C34.1393 14.057 34.152 14.0785 34.1583 14.1023C34.1828 14.2473 34.191 14.2266 34.2033 14.152C34.2033 14.152 34.2033 14.152 34.2359 14.1272C34.1706 14.2887 34.2073 14.5745 34.1093 14.5745C34.0846 14.9496 33.9558 15.3101 33.7376 15.6141C33.6763 15.6141 33.7049 15.5188 33.7621 15.4318C33.7096 15.4996 33.6537 15.5646 33.5946 15.6265C33.5538 15.5768 33.6763 15.4981 33.7131 15.4318C33.4557 15.5685 33.3046 15.9413 32.8961 16.0324L32.8471 16.1111H32.7981C32.7981 16.136 32.745 16.2064 32.696 16.2395C32.6224 16.2064 32.647 16.1153 32.4672 16.1898C32.3667 16.2023 32.2696 16.2347 32.1813 16.2851L32.022 16.3679L31.8463 16.4549C31.9689 16.4259 31.9403 16.4549 31.8954 16.5046C31.8504 16.5543 31.7034 16.5046 31.6298 16.5667L31.589 16.4963C31.6584 16.546 31.3317 16.691 31.3071 16.749C31.2173 16.749 31.4542 16.6206 31.4624 16.5709C31.2418 16.6744 31.1887 16.7158 31.1315 16.7448C31.0195 16.8151 30.9129 16.894 30.8129 16.9809C30.6413 17.217 30.8987 17.0016 30.8456 17.1424C30.691 17.3408 30.5542 17.5529 30.4371 17.7761L30.5392 17.7223C30.4044 18.1365 30.4126 18.4098 30.3309 18.6666C30.5392 20.0832 30.7394 20.2364 30.866 20.0335C30.9631 19.803 31.0304 19.5608 31.0661 19.3128C31.119 19.0562 31.1518 18.7959 31.1642 18.5341C31.1701 18.38 31.1934 18.2272 31.2336 18.0785C31.3038 17.8894 31.4175 17.7201 31.5653 17.5847C31.7131 17.4492 31.8907 17.3516 32.0833 17.2998C32.3202 17.2294 32.5939 17.1714 32.8022 17.1052C33.0087 17.046 33.2119 16.9755 33.4108 16.8939C33.6218 16.8044 33.822 16.6904 34.0072 16.5543C34.2578 16.3708 34.4714 16.1402 34.6362 15.875C34.8452 15.5688 34.9847 15.2194 35.0447 14.852C35.1071 14.5034 35.1167 14.1473 35.0733 13.7958C34.9998 13.6384 34.963 13.4189 34.8895 13.1911C34.8288 12.976 34.7229 12.7767 34.5791 12.6071C34.5791 12.5533 34.5791 12.5035 34.5505 12.4497C34.4445 12.3574 34.3523 12.25 34.2768 12.1308C34.1175 12.0107 33.9704 11.8533 33.8683 11.8036L33.6804 11.6669H33.7294C33.4312 11.5054 33.1371 11.348 32.8716 11.2196V11.2983C32.6605 11.1765 32.4269 11.1004 32.1854 11.0746C31.9811 11.0456 31.7769 11.029 31.5196 10.9669C31.3645 10.9969 31.2075 11.0149 31.0498 11.0208H30.6413C30.3376 10.9891 30.0314 11.0466 29.759 11.1864C29.8407 11.145 29.7141 11.1616 29.7182 11.1409C29.3996 11.2403 29.0687 11.3852 29.1218 11.5178C28.9053 11.613 28.9257 11.5551 28.8726 11.5178C28.9012 11.5675 28.7256 11.6917 28.5622 11.787L28.6275 11.7249C28.472 11.8232 28.3244 11.934 28.1864 12.0562L28.3416 12.0811C28.1006 12.2385 28.1945 12.019 27.9985 12.2302L28.0679 12.2965C27.9724 12.3897 27.8636 12.4679 27.7452 12.5284C27.6776 12.5778 27.6183 12.638 27.5696 12.7065C27.496 12.8277 27.4435 12.9608 27.4143 13.1Z" fill="#004A43"/>
</svg>
